{
  "asset": {"version": "2.0", "generator": "Tecs example contract fixture"},
  "buffers": [{
    "byteLength": 42,
    "uri": "data:application/octet-stream;base64,"
  }],
  "bufferViews": [
    {"buffer": 0, "byteOffset": 0, "byteLength": 36},
    {"buffer": 0, "byteOffset": 36, "byteLength": 6}
  ],
  "accessors": [
    {"bufferView": 0, "componentType": 5126, "count": 3, "type": "VEC3", "min": [-0.8, -0.8, 0], "max": [0.8, 0.8, 0]},
    {"bufferView": 1, "componentType": 5123, "count": 3, "type": "SCALAR"}
  ],
  "materials": [{
    "name": "Stone",
    "pbrMetallicRoughness": {
      "baseColorFactor": [0.8, 0.65, 0.45, 1.0],
      "metallicFactor": 0.0,
      "roughnessFactor": 1.0
    }
  }],
  "meshes": [{"primitives": [{
    "attributes": {"POSITION": 0},
    "indices": 1,
    "material": 0
  }]}],
  "nodes": [{"mesh": 0}],
  "scenes": [{"nodes": [0]}],
  "scene": 0
}
